<?xml version="1.0" encoding="utf-8"?>
<!-- Generator: Adobe Illustrator 24.1.0, SVG Export Plug-In . SVG Version: 6.00 Build 0)  -->
<svg version="1.1" id="Layer_2" xmlns="http://www.w3.org/2000/svg" xmlns:xlink="http://www.w3.org/1999/xlink" x="0px" y="0px"
	 viewBox="0 0 792 612" style="enable-background:new 0 0 792 612;" xml:space="preserve">
<style type="text/css">
	.st0{fill:none;stroke:#ED1C24;stroke-width:5;stroke-linecap:round;stroke-miterlimit:10;}
</style>
<path class="st0" d="M684.25,362.11c2.29,9.03,3.5,18.48,3.5,28.22c0,63.28-51.3,114.58-114.58,114.58s-114.58-51.3-114.58-114.58
	s51.3-114.58,114.58-114.58C626.72,275.74,671.68,312.47,684.25,362.11"/>
<path class="st0" d="M297.54,297.68c28.58,20.84,47.15,54.57,47.15,92.65c0,63.28-51.3,114.58-114.58,114.58
	s-114.58-51.3-114.58-114.58s51.3-114.58,114.58-114.58C255.32,275.74,278.62,283.88,297.54,297.68"/>
<path class="st0" d="M376.39,443.85c-0.71,0.06-1.43,0.09-2.16,0.09c-14.65,0-26.53-11.88-26.53-26.53s11.88-26.53,26.53-26.53
	s26.53,11.88,26.53,26.53c0,10.27-5.84,19.18-14.37,23.59l-5.93-21.58c0-3.2-2.26-7.21-5.46-7.21c-3.2,0-5.8,2.59-5.8,5.8
	c0,0.8,0.16,1.56,0.46,2.26"/>
<polyline class="st0" points="230.11,390.32 326.1,258.44 503.65,233.61 548.8,358.5 573.17,390.32 "/>
<circle class="st0" cx="571.48" cy="390.32" r="3.49"/>
<circle class="st0" cx="230.11" cy="390.32" r="3.49"/>
<path class="st0" d="M364.58,391.41l-61.81-192.75l-1.39-4.35c0,0-1.91-0.54-4.88-1.46c-11.39-3.53-38.43-12.68-33.78-18.66
	c0,0,23.87-4.19,43.55,3.35c0,0,43.97-7.12,46.48,6.28c0,0-23.17,0.4-37.27,5.44"/>
<line class="st0" x1="230.11" y1="393.82" x2="346.81" y2="411.62"/>
<line class="st0" x1="511.73" y1="255.95" x2="392.41" y2="398.09"/>
<path class="st0" d="M503.65,233.61l-8.71-39.29h16.78c0,0,49.1-5.69,36.9,26.03c0,0-12.79,19.59-28.7,21.36"/>
<path class="st0" d="M412.7,473.84c3.99,0,7.26,3.27,7.26,7.26v0c0,3.99-3.27,7.26-7.26,7.26h-14.95c-3.99,0-7.26-3.27-7.26-7.26"/>
<path class="st0" d="M397.76,475.84"/>
<path class="st0" d="M380.02,418"/>
<line class="st0" x1="390.5" y1="483.1" x2="369.75" y2="419.86"/>
</svg>
